<?xml version="1.0" encoding="UTF-8" standalone="no"?>
<!DOCTYPE svg PUBLIC "-//W3C//DTD SVG 1.1//EN" "http://www.w3.org/Graphics/SVG/1.1/DTD/svg11.dtd">
<svg width="100%" height="100%" viewBox="0 0 2000 2000" version="1.1" xmlns="http://www.w3.org/2000/svg" xmlns:xlink="http://www.w3.org/1999/xlink" xml:space="preserve" xmlns:serif="http://www.serif.com/" style="fill-rule:evenodd;clip-rule:evenodd;stroke-linejoin:round;stroke-miterlimit:2;">
    <g transform="matrix(1.399144,0,0,1.399144,-503.667482,-446.821516)">
        <path d="M1010.048,535.364C1050.058,512.264 1099.352,512.264 1139.362,535.364C1227.855,586.455 1385.781,677.634 1474.274,728.725C1514.284,751.825 1538.931,794.515 1538.931,840.715L1538.931,1227.438C1538.931,1273.637 1514.284,1316.327 1474.274,1339.427C1385.781,1390.518 1227.855,1481.697 1139.362,1532.788C1099.352,1555.888 1050.058,1555.888 1010.048,1532.788C921.555,1481.697 763.629,1390.518 675.136,1339.427C635.126,1316.327 610.479,1273.637 610.479,1227.438L610.479,840.715C610.479,794.515 635.126,751.825 675.136,728.725C763.629,677.634 921.555,586.455 1010.048,535.364Z" style="fill:rgb(127,34,254);"/>
    </g>
    <g transform="matrix(0.996455,0,0,1.094467,12.384958,-86.279487)">
        <path d="M911.867,934.844C918.021,923.375 927.102,913.442 938.221,905.854L766.373,772.5L607.189,772.54C609.516,748.62 623.831,729.713 656.04,712.072L825.077,622.374C879.025,593.734 969.826,633.733 968.938,691.667L970.381,892.094C976.939,890.669 983.782,889.915 990.816,889.915C998.739,889.915 1006.417,890.872 1013.721,892.666L1013.135,689.478C1030.81,629.743 1076.371,607.532 1145.535,614.766L1342.756,720.241C1365.495,736.087 1378.632,764.039 1384.821,789.931L1384.131,836.39L1178.635,835.134L1050.032,910.795C1061.561,919.83 1067.664,927.171 1072.819,940.497L1186.91,872.804L1399.992,874.06C1435.299,884.959 1457.089,908.574 1464.813,941.238L1466.192,1037.296C1463.642,1068.967 1446.219,1104.196 1395.854,1115.775L1196.564,1115.775L1067.732,1007.733C1061.403,1018.721 1053.252,1027.385 1042.291,1034.622L1184.152,1154.072L1388.551,1155.956L1388.683,1201.285C1388.011,1227.236 1341.994,1274.39 1297.74,1278.91L1186.188,1278.754L1228.003,1364.91C1247.362,1395.491 1197.814,1423.471 1177.459,1402.992L1032.658,1259.473C1021.734,1251.636 1012.44,1231.062 1012.109,1212.616L1012.987,1047.235C1005.904,1048.915 998.474,1049.81 990.816,1049.81C984.653,1049.81 978.637,1049.23 972.831,1048.128L970.686,1222.872L820.52,1222.872C772.148,1221.282 735.797,1182.37 734.819,1129.547L926.333,1024.107C916.587,1014.509 910.802,1005.575 907.14,992.519L701.705,1104.491L584.842,1104.677C543.894,1099.873 521.964,1074.403 517.499,1029.953L516.515,882.236C516.25,843.315 564.418,808.638 603.924,809.429L752.89,810.233L911.867,934.844Z" style="fill:white;"/>
    </g>
</svg>
